<svg width="217" height="62" viewBox="0 0 217 62" fill="none" xmlns="http://www.w3.org/2000/svg">
<path d="M0.390259 42.691V22.5745H5.06841V30.3714H19.6878V22.5745H24.4052V42.691H19.6878V34.0362H5.06841V42.691H0.390259ZM37.2381 34.6599H46.0424L41.6825 26.4731L37.2381 34.6599ZM28.2258 42.691L39.5707 22.5745H44.0867L55.6327 42.691H50.3696L47.9525 38.2855H35.2108L32.8717 42.691H28.2258ZM75.314 25.8492H64.6384V30.6444H75.314C76.1066 30.6444 76.6654 30.5405 76.9903 30.3391C77.3085 30.0988 77.4648 29.7218 77.4648 29.202V27.2917C77.4648 26.7717 77.3085 26.3952 76.9903 26.1546C76.6654 25.9532 76.1066 25.8492 75.314 25.8492ZM75.314 33.9583H64.6384V39.0654H75.314C76.217 39.0654 76.8148 38.9354 77.1138 38.6755C77.4256 38.4026 77.5815 37.9346 77.5815 37.2786V35.7582C77.5815 35.0888 77.4256 34.621 77.1138 34.348C76.8085 34.0882 76.2106 33.9583 75.314 33.9583ZM60.0382 42.691V22.5745H77.2697C78.8421 22.5745 80.0053 22.8863 80.7459 23.5166C81.441 24.1405 81.792 25.1281 81.792 26.4796V28.929C81.792 29.8714 81.493 30.6381 80.8955 31.2356C80.2782 31.8531 79.4205 32.2105 78.3223 32.3208C79.4853 32.4767 80.3821 32.8991 81.0122 33.575C81.6425 34.231 81.9546 35.0955 81.9546 36.1804V38.7536C81.9546 40.053 81.4606 41.0407 80.4665 41.7229C79.5113 42.366 78.0299 42.691 76.0222 42.691H60.0382ZM110.641 42.691V22.5745H107.444L93.2862 34.4325C92.695 34.8873 92.2725 35.2513 91.9995 35.5176C91.7007 35.8165 91.3628 36.187 90.9926 36.6092C91.0187 36.1998 91.0446 35.7645 91.077 35.2837C91.103 34.8094 91.129 34.4584 91.1485 34.231C91.1746 33.9192 91.1874 33.5554 91.1874 33.1394V22.5745H86.977V42.691H90.1738L104.949 30.248C105.372 29.8842 105.684 29.5984 105.885 29.3969C106.197 29.0851 106.444 28.8251 106.626 28.6172C106.613 28.8446 106.587 29.15 106.548 29.5269C106.509 29.9102 106.483 30.1896 106.47 30.3781C106.444 30.7615 106.431 31.2424 106.431 31.814V42.691H110.641ZM115.631 42.691V22.5745H120.349V30.9563L131.499 22.5745H138.276L124.942 32.0546L139.913 42.691H132.395L120.349 33.8413V42.691H115.631ZM192.985 42.691V22.5745H197.663V30.3714H212.283V22.5745H217V42.691H212.283V34.0362H197.663V42.691H192.985Z" fill="black"/>
<path d="M140.302 14.3956C134.867 6.43192 139.881 0.757313 153.191 12.35C150.886 11.2645 148.129 9.26773 145.312 9.31569C138.017 9.43953 155.951 23.6966 157.161 24.7227C158.176 25.5836 159.543 26.389 160.832 27.5409C168.495 34.3846 198.186 53.3801 202.544 56.0443C201.624 57.3233 200.235 58.4084 199.065 59.2236C191.632 56.966 145.577 23.4823 140.302 14.3956ZM130.059 0.4502C133.987 -1.01394 140.727 1.36553 143.311 3.68169C140.041 3.07892 131.88 -0.0177107 132.823 6.04469C133.537 10.6191 137.941 14.764 140.918 17.7905C149.98 27.006 158.592 34.9555 170.072 42.1903C173.088 44.0902 194.639 58.9924 197.665 60.116C195.649 61.122 194.591 61.8733 193.11 61.9946C185.328 62.6318 114.428 6.27759 130.059 0.4502Z" fill="url(#paint0_linear_16_54)"/>
<path fill-rule="evenodd" clip-rule="evenodd" d="M171.952 51.7287C166.347 51.5036 162.057 49.8199 158.648 46.8558C156.692 45.1547 153.02 40.9271 153.089 37.189C155.234 38.727 170.986 50.6795 171.952 51.7287Z" fill="#32598D"/>
<path d="M156.509 22.2327C160.345 17.3384 166.653 14.4905 173.402 15.2643C183.621 16.4361 190.979 25.4682 189.836 35.4377C189.488 38.4726 188.391 41.2442 186.747 43.5989L156.509 22.2327Z" fill="url(#paint1_linear_16_54)"/>
<path fill-rule="evenodd" clip-rule="evenodd" d="M151.338 13.1399C153.236 13.1399 154.775 11.5763 154.775 9.64786C154.775 7.71939 153.236 6.15588 151.338 6.15588C149.44 6.15588 147.901 7.71939 147.901 9.64786C147.901 11.5763 149.44 13.1399 151.338 13.1399Z" fill="black"/>
<defs>
<linearGradient id="paint0_linear_16_54" x1="-152.149" y1="169.285" x2="-198.941" y2="209.961" gradientUnits="userSpaceOnUse">
<stop stop-color="#32598D"/>
<stop offset="1" stop-color="white"/>
</linearGradient>
<linearGradient id="paint1_linear_16_54" x1="-196.743" y1="204.194" x2="-220.338" y2="220.109" gradientUnits="userSpaceOnUse">
<stop stop-color="#32598D"/>
<stop offset="1" stop-color="white"/>
</linearGradient>
</defs>
</svg>
